HIERARCHY
	ROOT Hips
	{
		OFFSET 0 0 0 
		CHANNELS 6 Xposition Yposition Zposition Zrotation Xrotation Yrotation
		JOINT LHipJoint
		{
			OFFSET 0 0 0 
			CHANNELS 3 Zrotation Xrotation Yrotation
			JOINT LeftUpLeg
			{
				OFFSET 0.0783705 -0.0912565 0.0336595 
				CHANNELS 3 Zrotation Xrotation Yrotation
				JOINT LeftLeg
				{
					OFFSET 0.117854 -0.323802 0 
					CHANNELS 3 Zrotation Xrotation Yrotation
					JOINT LeftFoot
					{
						OFFSET 0.135318 -0.371784 0 
						CHANNELS 3 Zrotation Xrotation Yrotation
						JOINT LeftToeBase
						{
							OFFSET 0.0102135 -0.028061 0.104268 
							CHANNELS 3 Zrotation Xrotation Yrotation
							End Site
							{
								OFFSET 0 -0 0.0542675
							}
						}
					}
				}
			}
		}
		JOINT RHipJoint
		{
			OFFSET 0 0 0 
			CHANNELS 3 Zrotation Xrotation Yrotation
			JOINT RightUpLeg
			{
				OFFSET -0.075711 -0.0912565 0.0336595 
				CHANNELS 3 Zrotation Xrotation Yrotation
				JOINT RightLeg
				{
					OFFSET -0.124412 -0.341819 0 
					CHANNELS 3 Zrotation Xrotation Yrotation
					JOINT RightFoot
					{
						OFFSET -0.135017 -0.370955 0 
						CHANNELS 3 Zrotation Xrotation Yrotation
						JOINT RightToeBase
						{
							OFFSET -0.009875 -0.0271315 0.111076 
							CHANNELS 3 Zrotation Xrotation Yrotation
							End Site
							{
								OFFSET -0 -0 0.0574575
							}
						}
					}
				}
			}
		}
		JOINT LowerBack
		{
			OFFSET 0 0 0 
			CHANNELS 3 Zrotation Xrotation Yrotation
			JOINT Spine
			{
				OFFSET -0.0007835 0.106437 -0.007921 
				CHANNELS 3 Zrotation Xrotation Yrotation
				JOINT Spine1
				{
					OFFSET 0.003049 0.106663 -0.0005215 
					CHANNELS 3 Zrotation Xrotation Yrotation
					JOINT Neck
					{
						OFFSET 0 0 0 
						CHANNELS 3 Zrotation Xrotation Yrotation
						JOINT Neck1
						{
							OFFSET -0.00252 0.089216 0.0066935 
							CHANNELS 3 Zrotation Xrotation Yrotation
							JOINT Head
							{
								OFFSET -9e-005 0.08844 -0.0166515 
								CHANNELS 3 Zrotation Xrotation Yrotation
								End Site
								{
									OFFSET 0.000367 0.0906245 -0.0063595
								}
							}
						}
					}
					JOINT LeftShoulder
					{
						OFFSET 0 0 0 
						CHANNELS 3 Zrotation Xrotation Yrotation
						JOINT LeftArm
						{
							OFFSET 0.1861 0.047094 -0.0271585 
							CHANNELS 3 Zrotation Xrotation Yrotation
							JOINT LeftForeArm
							{
								OFFSET 0.257301 -0 0 
								CHANNELS 3 Zrotation Xrotation Yrotation
								JOINT LeftHand
								{
									OFFSET 0.182226 -0 -0 
									CHANNELS 3 Zrotation Xrotation Yrotation
									JOINT LeftFingerBase
									{
										OFFSET 0 0 0 
										CHANNELS 3 Zrotation Xrotation Yrotation
										JOINT LFingers
										{
											OFFSET 0.028114 -0 0 
											CHANNELS 3 Zrotation Xrotation Yrotation
											End Site
											{
												OFFSET 0.022666 -0 0
											}
										}
									}
									JOINT LThumb
									{
										OFFSET 0 0 0 
										CHANNELS 3 Zrotation Xrotation Yrotation
										End Site
										{
											OFFSET 0.0230125 -0 0.0230125
										}
									}
								}
							}
						}
					}
					JOINT RightShoulder
					{
						OFFSET 0 0 0 
						CHANNELS 3 Zrotation Xrotation Yrotation
						JOINT RightArm
						{
							OFFSET -0.165127 0.0613395 -0.0234705 
							CHANNELS 3 Zrotation Xrotation Yrotation
							JOINT RightForeArm
							{
								OFFSET -0.266957 -0 0 
								CHANNELS 3 Zrotation Xrotation Yrotation
								JOINT RightHand
								{
									OFFSET -0.178239 -0 -0 
									CHANNELS 3 Zrotation Xrotation Yrotation
									JOINT RightFingerBase
									{
										OFFSET 0 0 0 
										CHANNELS 3 Zrotation Xrotation Yrotation
										JOINT RFingers
										{
											OFFSET -0.0428735 -0 0 
											CHANNELS 3 Zrotation Xrotation Yrotation
											End Site
											{
												OFFSET -0.034566 -0 0
											}
										}
									}
									JOINT RThumb
									{
										OFFSET 0 0 0 
										CHANNELS 3 Zrotation Xrotation Yrotation
										End Site
										{
											OFFSET -0.0350935 -0 0.0350935
										}
									}
								}
							}
						}
					}
				}
			}
		}
	}
MOTION
Frames:	8
Frame Time:	0.0166667
-0.393375 0.881315 -0.685685 -2.98942 2.68856 -12.7656 -0 0 -0 -9.05447 -31.9285 -6.09365 -7.3582 41.9054 19.0646 -0.00922854 -0.0834675 -1.598 -2.136 -24.813 -9.68769 -0 0 -0 31.649 -5.62983 3.38485 2.50178 26.6614 -10.53 -2.53967 -18.8442 -5.58165 0.453265 11.8303 -4.37235 3.38394 8.15098 0.12668 4.17188 2.80859 0.506609 2.38674 -1.66979 0.238001 -2.98595 -13.568 3.41584 -9.13564 25.1456 7.91051 -0.895475 10.4906 2.25989 -0 0 -0 -89.0089 36.2735 -6.9519 15.4663 -3.80763 -27.5091 -0 0.4192 -0 15.3034 8.18077 27.4757 -7.125 0 0 -8.70102 -2.05882 58.2105 -0 0 -0 83.6642 21.3241 3.61455 -15.2894 -3.71636 27.1764 -0 19.0391 -0 -11.6769 -0.0002 0.001 7.125 0 -0 13.8651 3.80678 -29.9447 
-0.3933 0.88246 -0.683275 -2.72035 2.48952 -12.9978 -0 0 -0 -8.88797 -32.5675 -6.02049 -7.88625 43.0085 19.8469 -0.0100146 -0.165044 -1.49751 -1.81413 -23.0143 -8.89374 -0 0 -0 31.2498 -5.14391 3.25924 2.43453 26.3349 -10.3792 -2.51452 -18.727 -5.57141 0.435359 11.5998 -4.28457 3.06517 8.49927 0.31688 3.96609 2.77296 0.752581 2.32805 -1.90526 0.359299 -3.18673 -13.2503 3.65 -9.05001 25.178 8.25048 -0.765334 10.4313 2.41351 -0 0 -0 -89.5682 35.4905 -5.9394 16.3986 -4.31027 -29.2741 0 -0.792 0 14.5669 7.90342 27.8852 -7.125 0 0 -9.41821 -2.27642 58.4666 -0 0 -0 84.0774 22.5982 2.14745 -16.0449 -4.1152 28.6019 -0 18.934 -0 -11.0894 -0.0805979 0.411 7.125 0 -0 14.3816 4.06773 -29.5362 
-0.393375 0.883505 -0.681005 -2.67585 2.32929 -12.7488 -0 0 -0 -8.64234 -33.29 -6.20414 -8.30457 43.8364 20.4554 -0.00107848 0.212031 -1.46471 -1.83025 -23.1089 -8.93501 -0 0 -0 31.1497 -4.69291 3.04211 2.36777 26.0054 -10.2278 -2.57804 -18.664 -5.85891 0.427053 11.49 -4.24288 3.14128 8.77928 0.410915 3.68808 2.89545 0.887233 1.98379 -1.92995 0.427342 -3.09365 -13.4476 3.73196 -8.95212 25.21 8.33871 -0.723256 10.4785 2.46768 -0 0 -0 -89.2443 35.2975 -5.69256 17.2958 -4.8295 -30.994 0 -2.8116 0 12.937 7.19517 28.6015 -7.125 0 0 -11.0494 -2.75399 58.8231 -0 0 -0 84.6954 23.6984 1.14747 -16.836 -4.55892 30.1098 -0 18.3334 -0 -10.7038 -0.142688 0.754802 7.125 0 -0 14.713 4.26239 -29.196 
-0.39333 0.88528 -0.67819 -2.19968 2.21119 -12.9893 -0 0 -0 -8.69628 -33.6699 -6.06926 -8.53954 44.2852 20.7934 -0.00303353 -0.0132979 -1.0061 -1.86148 -23.2906 -9.01424 -0 0 -0 30.5641 -4.22733 3.22117 2.33185 25.8259 -10.1458 -2.53305 -18.5272 -5.78813 0.468912 12.0297 -4.44838 2.7846 8.82232 0.76738 3.21875 3.0398 1.31505 1.65425 -1.80569 0.642719 -2.92263 -13.6653 3.7042 -8.75363 25.2798 8.2314 -0.700579 10.5396 2.44986 -0 0 -0 -88.8217 35.3926 -5.50529 18.0951 -5.32255 -32.5453 0 -3.681 0 17.6417 7.94432 23.4896 -7.125 0 0 -6.92246 -1.16634 54.5174 -0 0 -0 85.3867 25.0127 0.0961144 -17.7977 -5.13564 31.966 -0 17.4055 -0 -10.3728 -0.0396997 0.2169 7.125 0 -0 15.0594 4.21373 -29.7257 
-0.393085 0.88616 -0.675225 -1.8237 2.17599 -13.0593 -0 0 -0 -8.7287 -34.1318 -6.1124 -8.64129 44.4758 20.9388 -0.00288349 -0.11349 -0.748901 -1.74234 -22.5872 -8.7087 -0 0 -0 30.1267 -3.965 3.30993 2.29574 25.6433 -10.0625 -2.59469 -18.4172 -6.10974 0.40586 11.2068 -4.13539 2.39724 8.81595 0.801571 3.04839 2.95241 1.32796 1.68989 -1.89798 0.648756 -3.41621 -13.1018 3.93704 -8.52243 25.2865 8.57837 -0.476352 10.4042 2.60333 -0 0 -0 -89.3227 34.6015 -4.6987 18.8059 -5.78625 -33.9416 0 -4.0266 0 15.5487 7.59169 25.3993 -7.125 0 0 -8.81356 -1.74189 56.0919 -0 0 -0 85.6725 26.9089 -1.02544 -18.4999 -5.58358 33.3384 -0 16.4134 -0 -10.8636 -0.247138 1.28741 7.125 0 -0 14.5243 4.35326 -28.6696 
-0.392805 0.88718 -0.67233 -2.09217 2.34469 -13.0321 -0 0 -0 -8.05564 -34.5273 -6.30824 -8.58375 44.3681 20.8566 -0.00165583 -0.0299979 -0.6796 -0.594368 -13.5073 -5.01578 -0 0 -0 30.4257 -3.69831 3.37103 2.24039 25.3596 -9.93389 -2.60343 -18.0726 -6.41471 0.388974 10.9747 -4.04744 2.8029 8.87167 0.921323 2.88685 3.04154 1.51594 1.27967 -1.82285 0.743977 -3.23422 -13.2318 3.98044 -8.5324 25.111 8.59116 -0.511722 10.3715 2.63234 -0 0 -0 -89.0485 34.6603 -4.40484 19.512 -6.27143 -35.346 0 -4.1055 0 14.4194 7.03782 25.4793 -7.125 0 0 -10.0013 -1.95218 55.9331 -0 0 -0 86.1066 28.4069 -1.62308 -19.4033 -6.19516 35.1287 -0 14.9337 -0 -10.8962 -0.317369 1.64833 7.125 0 -0 14.4654 4.43533 -28.3126 
-0.391945 0.887695 -0.66919 -1.95491 2.38358 -12.8051 -0 0 -0 -8.14256 -34.5525 -6.81073 -8.21284 43.6581 20.3228 0.000476484 0.15829 -0.643002 -0.698239 -14.6082 -5.44337 -0 0 -0 30.1957 -3.51345 3.16485 2.20045 25.1526 -9.84036 -2.66239 -17.9736 -6.73246 0.295937 9.59115 -3.52615 2.79326 9.14298 0.902669 2.68981 2.98028 1.50153 1.07677 -2.03093 0.735662 -3.5668 -13.2875 4.04948 -8.25121 25.2103 8.70886 -0.327347 10.3911 2.6807 -0 0 -0 -89.1367 34.4762 -3.88335 20.0943 -6.6908 -36.5179 0 -4.6697 0 11.281 6.26934 28.6982 -7.125 0 0 -12.8302 -3.14084 58.5268 -0 0 -0 86.7528 30.0291 -2.92141 -20.5039 -6.99648 37.3504 -0 13.8373 -0 -11.1315 -0.381282 1.93684 7.125 0 -0 14.225 4.43811 -28.025 
-0.391275 0.888715 -0.6653 -1.529 2.3773 -12.6317 -0 0 -0 -8.5851 -34.2257 -7.28477 -7.60705 42.4337 19.4354 -0.000611032 0.0722945 -0.704501 -1.47286 -20.8805 -7.98103 -0 0 -0 29.6654 -3.26986 3.30609 2.20011 25.1508 -9.83955 -2.7454 -18.1646 -6.90665 0.33634 10.2166 -3.76112 2.53039 8.95509 0.869196 2.40399 3.00228 1.41855 0.937951 -1.90446 0.696585 -3.96855 -13.5686 4.03551 -7.75688 25.9171 8.75067 -0.0422526 10.662 2.67064 -0 0 -0 -89.5043 34.1285 -2.98273 20.6894 -7.13801 -37.7298 0 -5.3958 0 11.6232 5.86678 26.4242 -7.125 0 0 -12.8336 -2.60847 56.2976 -0 0 -0 87.289 31.618 -3.91012 -21.4259 -7.7187 39.2507 -0 12.8662 -0 -11.6794 -0.534257 2.58291 7.125 0 -0 13.6674 4.43018 -27.3774 
